/* XPM */
static char *wall_imresizer1756673371[] = {
/* columns rows colors chars-per-pixel */
"64 64 246 2 ",
"   c #030402",
".  c #090602",
"X  c #050904",
"o  c #0A0B05",
"O  c #050A0A",
"+  c #0B0D0B",
"@  c #06060B",
"#  c #130D01",
"$  c #120F0E",
"%  c #0B1203",
"&  c #0D120D",
"*  c #0A1508",
"=  c #131405",
"-  c #13140D",
";  c #1B170B",
":  c #16190C",
">  c #1B1B0C",
",  c #1A1B05",
"<  c #0B0E12",
"1  c #0D1312",
"2  c #0E1814",
"3  c #0D1719",
"4  c #0A1514",
"5  c #121513",
"6  c #1A1613",
"7  c #151A14",
"8  c #1B1B14",
"9  c #131619",
"0  c #151B1B",
"q  c #1B1D1B",
"w  c #211C0D",
"e  c #221E14",
"r  c #221E1A",
"t  c #1D2114",
"y  c #1C221C",
"u  c #18221C",
"i  c #142214",
"p  c #25260C",
"a  c #242214",
"s  c #2A2415",
"d  c #2A2916",
"f  c #23241B",
"g  c #2B261A",
"h  c #26291C",
"j  c #2C2B1C",
"k  c #252813",
"l  c #322D1C",
"z  c #322B14",
"x  c #2C311B",
"c  c #33321E",
"v  c #3A361C",
"b  c #30350E",
"n  c #1A1D21",
"m  c #171C20",
"M  c #1C2322",
"N  c #1A2727",
"B  c #1F3437",
"V  c #222523",
"C  c #242A24",
"Z  c #2B2C23",
"A  c #232629",
"S  c #242B2B",
"D  c #2A2D2A",
"F  c #2A2726",
"G  c #322D22",
"H  c #342E2A",
"J  c #2D3223",
"K  c #27302B",
"L  c #2B312D",
"P  c #263025",
"I  c #353224",
"U  c #3A3424",
"Y  c #353A25",
"T  c #3D3925",
"R  c #33332B",
"E  c #3A362B",
"W  c #36392B",
"Q  c #3C3A2C",
"!  c #242D30",
"~  c #2A2D33",
"^  c #253133",
"/  c #2B3433",
"(  c #2E3933",
")  c #2C3B3B",
"_  c #2A3939",
"`  c #333531",
"'  c #393631",
"]  c #343B34",
"[  c #3C3C33",
"{  c #333C3C",
"}  c #3C3E39",
"|  c #343538",
" . c #403A1A",
".. c #423C26",
"X. c #433D2C",
"o. c #453A2F",
"O. c #433D32",
"+. c #463E36",
"@. c #3F402D",
"#. c #3D4134",
"$. c #3E423B",
"%. c #36403F",
"&. c #44422D",
"*. c #4A422D",
"=. c #49492A",
"-. c #524D2B",
";. c #454333",
":. c #4A4434",
">. c #4C4A35",
",. c #44433B",
"<. c #4B463A",
"1. c #46493C",
"2. c #4C4A3B",
"3. c #464937",
"4. c #524A35",
"5. c #534C3B",
"6. c #594E3D",
"7. c #504636",
"8. c #55523C",
"9. c #5A533D",
"0. c #585639",
"q. c #515433",
"w. c #605B3E",
"e. c #5D683E",
"r. c #343F41",
"t. c #233543",
"y. c #344343",
"u. c #3A4544",
"i. c #2F4048",
"p. c #434642",
"a. c #4C4C43",
"s. c #484C45",
"d. c #534D42",
"f. c #584E41",
"g. c #4C5244",
"h. c #4E534B",
"j. c #545344",
"k. c #5B5443",
"l. c #5C5A45",
"z. c #53544B",
"x. c #5B554B",
"c. c #5D5B4C",
"v. c #565A47",
"b. c #4D5250",
"n. c #5D5C53",
"m. c #565954",
"M. c #444D53",
"N. c #625645",
"B. c #625B45",
"V. c #635C4B",
"C. c #695D4C",
"Z. c #665948",
"A. c #645E52",
"S. c #695F54",
"D. c #5F6253",
"F. c #5B605A",
"G. c #5D604D",
"H. c #636245",
"J. c #65624C",
"K. c #6A634D",
"L. c #696748",
"P. c #73694E",
"I. c #656254",
"U. c #6B6453",
"Y. c #6C6A55",
"T. c #64645A",
"R. c #6B6559",
"E. c #6C6A5B",
"W. c #666A55",
"Q. c #726554",
"!. c #726B55",
"~. c #726C5C",
"^. c #7A6D5B",
"/. c #766957",
"(. c #6F715D",
"). c #747155",
"_. c #75725C",
"`. c #7A735D",
"'. c #7D7A58",
"]. c #6A6A62",
"[. c #736D62",
"{. c #7A6F62",
"}. c #747364",
"|. c #7B7463",
" X c #7D7A65",
".X c #74746A",
"XX c #7C756A",
"oX c #7C7A6C",
"OX c #767868",
"+X c #7C7C73",
"@X c #7E7F79",
"#X c #697068",
"$X c #82775E",
"%X c #827564",
"&X c #837B65",
"*X c #847C6B",
"=X c #897C68",
"-X c #837E71",
";X c #8B7F74",
":X c #907D6F",
">X c #7F816B",
",X c #838165",
"<X c #85826B",
"1X c #8B836D",
"2X c #8C876A",
"3X c #92866C",
"4X c #858374",
"5X c #8B8472",
"6X c #8D8A74",
"7X c #8C8579",
"8X c #8D8A7C",
"9X c #85867A",
"0X c #928673",
"qX c #938A75",
"wX c #938C7B",
"eX c #9A8F7C",
"rX c #968B77",
"tX c #8E917E",
"yX c #94917C",
"uX c #9B927D",
"iX c #9E9A7E",
"pX c #939276",
"aX c #91916D",
"sX c #A3977C",
"dX c #8C8D82",
"fX c #928F83",
"gX c #9B9583",
"hX c #9D9A85",
"jX c #9D998A",
"kX c #979684",
"lX c #9C9C90",
"zX c #A39B86",
"xX c #A49D8A",
"cX c #A59786",
"vX c #A69E93",
"bX c #9EA08A",
"nX c #A6A18B",
"mX c #ADA693",
"MX c #B3AA97",
"NX c #B7B39A",
"BX c #B3AA8F",
"VX c #BAB7A2",
"CX c #C0BCA1",
"ZX c #BEC0AB",
"AX c #C8C8B2",
"SX c #DCD9CA",
/* pixels */
"4   X ; ; w r   G e w # o.U c 2.G U f.5.:.> O.+.X 0 < X o 7 - 8 & * 8 = G E H 6 d &.Q w ..k.4.B.I j.2.Z a Q g g   5 +   1   + X ",
"    o 8 ; e ' H o.6.+.g 5.O.l 3.a e l X.7.l a.[ 8 } y q & o + o   X = e j e <.m.> Q o.U 5.!.N.N.R x.j t = : I W @ D F       O X ",
"+ @ . > G U  .e H 5.<.g <.X.a c l g G 5.5.g x.,.8 A.<.1.V . 5 + u 7 . h +.o.x.5.j X.:.U 4.B.:.X.d ;.> k > % s l . ,.n.,.R + @   ",
"  $ 6 R <.o.o...o.O.<.U 3.&.c l G l c f.7.w d.O.# A.R.A.R - 5 1 X 5 - W k.k.C.5.I U o.:.V.U.9.5.>.&.j k p j a Y # E d.a.`     + ",
"@ .   r <.5.o.z <.E x.c.5.X.:.U G I l k.N.U x.' w f.n.a.f -   + 7 o + I V.{.C.:.5.Q 4.C.Q.k...z ..9.l.8.3.3.a j . G <.z.+.7     ",
"  + $ $ . # r z E g V.E.d.Q 5.5.O.k.6.^.Q.+.f.E V +.G 6 . 5   X   . 5 q + ; g k.Q > U v.B.4.X.X.&.^.k.2.x t Z G # F 6 o       @ ",
". + @ @ @ r E G h 8 <.v.f.O.f.U.<.R.S.Q.Z.o.o.H r } q & o 7 8 $ & 7 7 M 7 V 1.].O.s X.j.:.:.5.8.U U.5.3.h % 7 8 + D 6 + X 5 +   ",
"  @ 9 0 < r ' r a > j l <.:.:.U.d.U.f.f.N.d.+.o.q b.D D q 8 A :   Z 0 N u K h.n.s > :.V.4.k.K.U.6.x.2.I t t % f < F 7 0 1 5 O & ",
"  + . - @ @ o h l U v.l :.d.A.~.U.|.K.P.P.!.P.P.F 5 6 $ q 5 + + . - o 7 9 5 V a X.T '.K.B.>.}.>XV.`.-.0.3.= c =.n + + + & &   + ",
"  +       X o x X.G U.V.:.7.~.5.U ~.Y.4X*X1XU.|.H q 8 o 5 5 5 5 + 6 * - 1 @ r E c B.yXK.B.l.I.I.f.l.T 2.2.V.V.*.M + O   X X X & ",
"@ q 5 + < 5 & J T p >.;.U 8.V. X{.;XU.5.~.-X[.[.} F V & q V C A 7 u y u m 4 q D.x.:.V.K.C.V.U.6XS.%X>.4.O.a.s 5.D u 7 & 1 7 5 u ",
"@ n + < 3 9 7 #.T :.&.5.>.T U I.^.U.:.'.V.-XA.dX` C C 0 S | ) / N L ( C S 9 8 }.R.o.j._.9.N.4.C.S.U.z *.X.<.d q.F 7 5 & 7 q 5 5 ",
"< 9 X + < m V g., Y d E.(.l. XyXnX,X2X).J.<X}.U S u M 2 N ( / S ! ( ( u M 5 r |.O.l f..X[.*X_.NXMX6X).'.&.&.8.b K i 2 4 0 M 5 4 ",
"< 3 & 7 < q q x Y U &.;.c.>X(.NXBX).,XsX>.J._.4Xp./ K u ! | ) _ S D P u 9 q <.1X~.S.S.d.[.-XOXAXAXhXaX2X0.@.W.=.] y t 7 y S M M ",
"  - : 8 + V k = I j v.w [ 4X] }._.>.&XJ.9.|.wXV.b.} / M ( { r.r.A L #.$.R ,.XXeXk.~.;Xg +.+XT.g.tXW.H.8.2.Y J b P u u 7 0 N 0 0 ",
"+ 8 a q - ,.j.Y Z G ,.g : a.a.= , W oX2.;.8X7XG p.S N q / ^ ^ _ A } I..Xm.A.fX=X5.X.fX' V s.G.2 7 a G.3.t P h % u t C M M M 3 9 ",
"; <.x.N.d.5.N.o.I e p.` y - L 8 0 { D - <.7Xl.v.J.J.oXL ] _ i.N : I.tXqX2X%X*X3X;Xe g.$.u 0 R C u L C 8 Z Q W = t > Q W y h 2 i ",
"I V.N.k.U.S.U.*X:.p O.` q 7 0 + < 7 6 f <.V.Y B.3X*X<XOXF.r.! r.E 8XnX5X`.Q.=XuX8Xa ;.s.1 7 7 O 4 7 : f R O.&.(.v.}.2.2.[ $.u N ",
"s 5.4.c T 4.C.0XZ.c v.s.7 7 O 7 u 7 q O.U.`.B.!.BXnXK.O.W ,.{ ] I kXgXJ.9.4.Z.cX&X..j.F.- 0 5 q 5 5 $ G A.I.p x >X>X&.j c t $.J ",
"l :.U.7.T U.1X*X$X*. Xj.y u 2 C C f Z x.|.gX1X,XxXNXgX X~.[ [ ,.O.gXxX=X=X%X=XuX'.9.(.}.8 u y S A H H H V.I.5.3.v ,Xq.`.U.3.h Y ",
"l X.!.U.K.uXuX%X3X..|.R u u 4 & + o r d.U.*X$X1XuXmXzXxXMX5XoXE.V.7XmXMXmXMXmX:X'.J._.m.8 0 u & + $ r +..XS.Y.x b =.1XgX-XI.|.5.",
"w X.k.N.Q.|.*XrXqXo.oXj 7 & + X   & 8 O.x.^.`.`.J.wXzXxXfX0X7XeX6.rXfXrXcXfXrXgX|.V.E.3.u - 8 &   5 r R <.O.Y.j b H.).5X^.wXU.B.",
"s Q o.X.:.:.B.!.4X3.oX[ V 7 y q 4 C F ;.j.~.W.K.*XV.6.k.B.9.V.&X..`.C.5.Y.V.l.`.Q.5.g.] y 0 C C 0 D y O.x.U.W.x e.q.>.X.o.5.9.:.",
"~.A.A.~.A.~.%X:.n.; [ C y M V f 3 M A z.d.U Y Y.c.U.vX4XnXxXcX|.zX*X*XgX8XyX8X5.[.' h F C S L C < V f z.p.Q > j q.L.l.8XvX7XY.,X",
"9.K.:.5.f.S.;XC.R.G - 5 4 7 u : & 5 V 0 m A H ^.~.vX5XE.T.V.xX:X$X1X~.I.E..X8X*Xv.@.8 5 & 0 u y 5 9 & 0 i * i Y h bX,Xq.l.S.-X{.",
"l.N.k.|.%XZ.N.+.`.2.R C u 7 u 8 9 V M u m F f.^.N.5XV.jXMX-X:XQ.&XuXU.5XjX5XV.}.>.*.Z F M B u u 3 N A A M y @.#.h e.q.Y.<XXX~.{.",
"q.^.!.U o.%XN.Q.=X5X[.u.N S K u 0 / ( ] ~ p.=X=XQ./.VXdXd.wX*XiXsXP.1XU.A.5X*X~.=.`.[.z._ %.%.%.N r.M.} Z ] s.` > _.,XP.o.f.f.^.",
"w.Z.>.Q.6.%X%XN.3XcXdXz.( ^ _ ^ N %.h.T.A.{.xXsXN.*XwXwXVXrXZ.iXsXaXC.uX4XwX!.^.-.0XfXT.%.%.B y.t.r.] F.T.dX].t W W.w.).|.XXN.U.",
"%XP.V.k.|.0XC.k.$XeX-Xm.{ S ^ ) _ { OX8XXX;XrX3Xx.R.-XfX[.I.mXNXNXiX2X9.`.4XC.k.L.$X$XT.u._ N / 5 ] z.kX<XyXI.R ' 4X>.k.A.I.R.5X",
"2X~.V.V.gXU k.C.$XsXdXb./ _ ) N N ] oXqX~.~.Q.C.G I.E fX+XT.kX6XNXVX}.<X|.5.7.=X-.$X=XS.%.y.r.S n [ v.2X).).v.W q j.p >.A.a.I.gX",
"Y.X.4Xg # E fXS.$XrXfXm.~ y.u.u N s.*X1XC.Z.C.k.' -Xp.$ r +XD.W.2XH.yX3.: I %X7X .P.*XI.! %.{ A O } (.H.0.*.T.m.| +Xc.f 7 } T.z.",
"o x I.f F A.{.x.Q.K.[.].%.^ ] ( M n.1X1XC.S.*XR.V n.m.} f 1.g.* , b >X2.W n.~.S.0.4.U.OX%.B ( | m s.<X0.`.d.#Xp.~ m.n.J y s.s.% ",
"8 r r e U :.E G V.}.[ } ^ ^ N N y z.9X~.V.:.d..XN y t t r q } i y ] R Z O.d.+.R C.7.2.J S { i.t.A z.oX X_.s v.d.M q V 8 r - V 7 ",
"  @ g <.x.~.7X%XgXxXc.9X{ m B 3 Z 8XgXzX1Xo.A.XXV dXOX2.Z 7 & y X & h <.S.V.cX7XrX5X*X2.].] _ u.D +XfXxXzX:.4Xx.n -XdXz.8 : & * ",
"9 + # d.S.%XcXC.wXyXU.kXI.$.M ] x.wX/.=XeXk.~.~.Q OX~.I.' r 8 1 C * % 2.Q.Z.vXQ.'.!.2XY.9X1.$.b.,.5XyXhXiX7.*X<.f 9X8XA.d.V O 5 ",
"5 5 r x.U.%X3XP.5XqXX.~.v.a f R 5.~.`.3XeXZ.S.R.I |.*XE.A.9 1 V y M Z R.{.C.cXZ.0.).K.8.|.I.2.-Xk.*XnX0X^.v V.U.f [.fX.XXX6 + M ",
"$ + 7 [ I.%X^.C.1XN.uXmXwX Xc.l.K.%XeXBXcXZ.^.{.l U.oXI.h.9 r 6 1 8 8 n.oX5X3X/.L.w.qXzX6X|.`.U.l.|.eX&X$Xo.!._.6 A.*XI.A.; 7 < ",
"  + V q e G 7.^.;X^.uX6X&XB.K.K.`.eX3XBXgX6.;X|.<.Q h ;.7 9 V     5 8 ` Z E o.0X9.*.2X6XuXZ.!.&X4.*X1X=X0Xw.5XV.V ,.f Z q q 9   ",
"$ 5 - + & Z x.Q.U.c.wX|.3X<X`.gX..=X0XgX;XU 5.V.$.m.f 8 n <   g 8 8 - 7 5 C <.8X5.z -XxXhX|.yX<Xv <XzX7X%Xo.}.v.` m.8 F . + 5 4 ",
"+ 6 q / q Z I.2.2.l :.l.4.9.$X'.8./.Q.f.[.;.> [ y b.$.M / ~ | e : F / ` L ] I.9XO.l <.j.c.W.).W.4.k.^.V.R.o.<.c 9 b.~ D f y A q ",
"+ o o - - A r s B.-.mXnXC.>.mXzX4XrXqXyX^.*X).3XR V V 5 q q 7 5 @ 7 6 y M q R j =.H.pXnX|._.gXzXgX2X&X|.V.eX,X'.] y u & 8 5 - $ ",
"  o * & X 5 6 G 8.8.gX6X`.B.&X`.B.U.`.uX5XrXQ.P.D 5 6 + 6 6 6 9 q 6 u f < X 8 2.q.J.6XkX6X4X!.&Xk.K.H.iX8XgXaX-.P : 1 X 1 & + $ ",
"@ . * 1 @ 0 r E k.J.nX3XP.H.'.pX`.zXW.*X!./.qXI.] q q 7 D D D ` M C P C 0 A C D.8.J.hXjX<X<XW.iXV.qXP.1X5X0X$X-.] h u 1 n f q f ",
"9 + * 2 9 S L 1.E.2.Y.W.&.=.l.).,X9.H.!.B.U.f.~.| 7 5 7 ~ L / } ! y.( ( M L 7 3.G.Q E.4Xj.L.0.W.*X0.-.L.5.S.Q.L.W y M 5 M M q 7 ",
"& 7 u u 3 A D j.J a &.c.&.>.>XNXNXtXpX(.Y.gXV.U } 5 1 5 S ^ ^ %.! r.P %.K u t l.Q c T.4Xx.E.6XNXMXNX3Xw.I.5XJ. .Z 0 q 4 M M 0 + ",
"& - i t 4 S F ;.T.2.[ 3.}.tXtXZXZXnXpXiXV.T U.qXs.C M u ] ) y.y.N { i K S K 2.K._.c.x.j.Y.9X6XjXSXnX2XnX^.z.v.l K y C q ! D M 2 ",
"& 6 t y q ` R &.2.#.c.j 3.9XE.dXhX(.hXY.=.!.9.K.p.L S M _ { i.%.A / C y C [ X.v l.c.|.I 1.oXoXoXbXtXpX>Xg.,.;.h L y N 0 S ! M 4 ",
". f W R y [ ;.k.#.y .Xg 7 T.Z : , d 5X:.c 6XK.4.p.L K M / ) _ _ q y s.g.1.,.U v Y I oXg f T.g.: y , (.0.Y .Xn.J W V A m N ! M * ",
"% t ;.>.V.V.4.1XA.6 ] 6 + f | n 1 $.` e E U.3.&.`.E.c.h.( ! %.B @ n.T._.1XL.*.P.:.l [ R - 5 u.f * #.%.h h .X>.b p 2.h 7 { 3 M M ",
": , Y <.V.K.:.k.+Xh R f   & 7 @ X & + a [ k.&.W.uX5XoX9X#Xu.i.y.' XX8X0X!.$XqXeX:XY j.,.- + & + i y & 7 J D.&.&.W.k z.] u { N 0 ",
"a = a l X.k.>.X.<., ;.a.8 + O 7 5 7 8 O.n.U.>.l.1XzX&Xx.a.,.] A G gX3X9.4.9.Z.cX|.4.Y.h.& & & 7 & +   Z D.5.d d c x 1.h.C A N S ",
"k g Q I Q 5.:.2.X.: a.2.: o * M V C q ,.}.4XI.H.1XuX|.J.V.a.1.h.:.7X3X/.0.6.Z.=X&X!.I.I.7 - f 7 7 R C P c.~.Y.w @.8.t 3.p.y f A ",
": 1.S.A.R.A.;.2.>.w 2.Z - X & & * 5 5 2.}.oXJ.j.!.uX1X*XrX*XXX7X9.eXrXrXrXrX&X1XaX4.c 3.y & 5 + + & 5 Z a.v.^.a c.Q ;.R.j.a.' D ",
"% 2.x.j.E.c.3.j.<.8 1.t -   & +   7 q O.j.E.J.8.4.%XU.5.U.|.*X;X4.`.|.`.C.|.0X*X1X..U j + 8 & 5 <   5 ,.f.o.S.G d.a 2.U.5.d.+.+.",
"6 R E U <.<.3.2.2.g ;.8     + 0 X u - r I c.Y.l.>.>.Y ..6.4.C.%XX.*XV.<.j.>.4.,XP.4.x.J 5 q q 9 @ q r 8 g U <.g A.O.w l X.l R ' ",
"a G o.<.<.+.Q x a . F D q D 5 3 & & . ;.j.;.l , c >.>.9.E./.Q.C.~.S.x.[.c.>.8.0.z w Z R A 1 ~ A 5 9 r +.j.j > g G G o.X.:.s g o.",
"e <.d.a.A.E.n.<.f : . X + + o o   + 4 1 < + 7 Z r oX~.8.k.7.rX%X^.%X<X~.c.c.OXg.t C - + + X & % . . 5 X 1   f O.E x.c.E E r I E ",
"o.+.E A.<.R j.Q j 7 - & & 1 * + + 5 9 1 X o f I h 5.Q >.X.o.C.;X7X%X5.2.I.Q 3.U.j J 8 & & @ 1 & @ < q 0 5 + r I Z G I E O.g g E ",
"l O.<.H <.x.w X.I j h q q 1 1 < 0 N D V 6 F O.:.e j &.l.*.9.5.C.S.6...l.v.x l c.U &.;.Z 7 5 4 u 5 9 n A 5 g Q o.g R a g a a e e ",
"z Q j f G x.7.l j x P Z q 5 9 9 0 M ~ R ' d.j.X., ;.<.c >.X.c 8.N.9...X.c c c 2.d &.n.] 7 * X u 3 0 A ' V O.f.f.= l e a = a g j ",
";.J t I o.<.G g , a Z C q 9 9 n 2 M ' ,.<.V.B.T ;.;.;.j.>.l >.Y.Y.!.c k Q >.j ;.w &.I.#.7 * O M 4 n ` a.o.d.<...: e 8 I a r j E ",
";.j R h o.' # G w j R F 0 1 3 M & V a.j.:.k.l.&.a J = 2.8 j j.Y.*Xc.@.Y Y W j <.a O.5.Y 8 7 4 N 1 n R ' U o.O.g 8 f ; 6 6 h #.[ ",
"W j q ;   . N.g a G ` Z 5 4 1 7 o 8 +.4.U X.2.I o T.-   7 #.[ W.OX;.g.Q . - Q O.; R ] h - O < 1 $ q f w g Q Q Z . - -   . D d.` ",
"X + V . 6 r +.e 8 G H V 5 * 4 i - w +.6...:.2.Z : +.R q . L Q . = : ;.a : I <.E 5 $.$.J t o 7 5 o 6 g # j U R h . - r - $ + r   "
};
